<svg width="24" height="24" viewBox="0 0 24 24" fill="none" xmlns="http://www.w3.org/2000/svg">
<path fill-rule="evenodd" clip-rule="evenodd" d="M16.2718 3.8719C16.75 3.39367 17.3986 3.125 18.075 3.125C18.7513 3.125 19.3999 3.39367 19.8781 3.8719C20.3564 4.35013 20.625 4.99876 20.625 5.67508C20.625 6.3514 20.3564 7.00003 19.8781 7.47826L12.1645 15.1919C12.0472 15.3092 11.8883 15.375 11.7225 15.375H9.00004C8.65486 15.375 8.37504 15.0952 8.37504 14.75V12.0275C8.37504 11.8618 8.44089 11.7028 8.5581 11.5856L16.2718 3.8719ZM18.075 4.375C17.7302 4.375 17.3995 4.51197 17.1557 4.75578L16.2836 5.62789L18.1221 7.46648L18.9943 6.59438C19.2381 6.35056 19.375 6.01988 19.375 5.67508C19.375 5.33028 19.2381 4.9996 18.9943 4.75578C18.7504 4.51197 18.4198 4.375 18.075 4.375ZM17.2383 8.35037L15.3997 6.51178L9.62504 12.2864V14.125H11.4636L17.2383 8.35037ZM3.88394 7.60568C4.36988 7.11976 5.02894 6.84677 5.71615 6.84677H8.66538C9.01056 6.84677 9.29038 7.12659 9.29038 7.47177C9.29038 7.81695 9.01056 8.09677 8.66538 8.09677H5.71615C5.36045 8.09677 5.01932 8.23807 4.76781 8.48957C4.51629 8.74108 4.375 9.08219 4.375 9.43786V18.2853C4.375 18.6409 4.51629 18.982 4.76781 19.2336C5.01932 19.4851 5.36045 19.6264 5.71615 19.6264H14.5638C14.9195 19.6264 15.2607 19.4851 15.5122 19.2336C15.7637 18.982 15.905 18.6409 15.905 18.2853V15.3361C15.905 14.991 16.1848 14.7111 16.53 14.7111C16.8752 14.7111 17.155 14.991 17.155 15.3361V18.2853C17.155 18.9725 16.882 19.6315 16.3961 20.1174C15.9101 20.6034 15.2511 20.8764 14.5638 20.8764H5.71615C5.02894 20.8764 4.36988 20.6034 3.88394 20.1174C3.398 19.6315 3.125 18.9725 3.125 18.2853V9.43786C3.125 8.75065 3.398 8.0916 3.88394 7.60568Z" fill="white"/>
</svg>
