<svg width="20" height="20" viewBox="0 0 20 20" fill="none" xmlns="http://www.w3.org/2000/svg">
<path fill-rule="evenodd" clip-rule="evenodd" d="M4.58337 8.65879C4.58337 6.40799 6.40802 4.58334 8.65883 4.58334C10.9096 4.58334 12.7343 6.40799 12.7343 8.65879C12.7343 10.9096 10.9096 12.7342 8.65883 12.7342C6.40802 12.7342 4.58337 10.9096 4.58337 8.65879ZM8.65883 3.33334C5.71766 3.33334 3.33337 5.71763 3.33337 8.65879C3.33337 11.6 5.71766 13.9842 8.65883 13.9842C9.90417 13.9842 11.0497 13.5568 11.9566 12.8406L15.6033 16.4872C15.8473 16.7313 16.2431 16.7313 16.4871 16.4872C16.7312 16.2431 16.7312 15.8474 16.4871 15.6033L12.8405 11.9567C13.5568 11.0497 13.9843 9.90419 13.9843 8.65879C13.9843 5.71763 11.6 3.33334 8.65883 3.33334Z" fill="white"/>
</svg>
