<svg width="28" height="28" viewBox="0 0 28 28" fill="none" xmlns="http://www.w3.org/2000/svg">
<path fill-rule="evenodd" clip-rule="evenodd" d="M13.2014 4.76386C13.2014 4.3228 13.5589 3.96525 14 3.96525C14.4411 3.96525 14.7986 4.3228 14.7986 4.76386C14.7986 5.20492 14.4411 5.56247 14 5.56247C13.5589 5.56247 13.2014 5.20492 13.2014 4.76386ZM14 2.92358C12.9836 2.92358 12.1597 3.7475 12.1597 4.76386C12.1597 5.78022 12.9836 6.60414 14 6.60414C15.0164 6.60414 15.8403 5.78022 15.8403 4.76386C15.8403 3.7475 15.0164 2.92358 14 2.92358ZM14 13.2013C13.5589 13.2013 13.2014 13.5589 13.2014 14C13.2014 14.441 13.5589 14.7986 14 14.7986C14.4411 14.7986 14.7986 14.441 14.7986 14C14.7986 13.5589 14.4411 13.2013 14 13.2013ZM12.1597 14C12.1597 12.9836 12.9836 12.1597 14 12.1597C15.0164 12.1597 15.8403 12.9836 15.8403 14C15.8403 15.0163 15.0164 15.8402 14 15.8402C12.9836 15.8402 12.1597 15.0163 12.1597 14ZM14 22.4375C13.5589 22.4375 13.2014 22.795 13.2014 23.2361C13.2014 23.6772 13.5589 24.0347 14 24.0347C14.4411 24.0347 14.7986 23.6772 14.7986 23.2361C14.7986 22.795 14.4411 22.4375 14 22.4375ZM12.1597 23.2361C12.1597 22.2197 12.9836 21.3958 14 21.3958C15.0164 21.3958 15.8403 22.2197 15.8403 23.2361C15.8403 24.2525 15.0164 25.0764 14 25.0764C12.9836 25.0764 12.1597 24.2525 12.1597 23.2361Z" fill="url(#paint0_linear_33_211)"/>
<defs>
<linearGradient id="paint0_linear_33_211" x1="19.7509" y1="38.1863" x2="12.2994" y2="38.8392" gradientUnits="userSpaceOnUse">
<stop stop-color="#FF8008"/>
<stop offset="0.633443" stop-color="#FFAE26"/>
<stop offset="1" stop-color="#FFC837"/>
</linearGradient>
</defs>
</svg>
